<svg viewBox="0 0 1100 950" xmlns="http://www.w3.org/2000/svg" font-family="'Helvetica Neue', system-ui, -apple-system, sans-serif">
  <rect width="1100" height="950" fill="#0a0a0a"/>
  <line x1="105" y1="65" x2="105" y2="880" stroke="#252525" stroke-width="2"/>
  <line x1="555" y1="65" x2="555" y2="798" stroke="#252525" stroke-width="2"/>
  <text x="93" y="38" text-anchor="end" fill="#505050" font-size="11.5" font-style="italic">Incubator</text>
  <text x="93" y="53" text-anchor="end" fill="#3a3a3a" font-size="9">afsalali1238</text>
  <circle cx="105" cy="110" r="3.5" fill="#5b9bd5" opacity="0.9"/>
  <line x1="109" y1="110" x2="121" y2="110" stroke="#5b9bd5" stroke-width="1.5" opacity="0.7"/>
  <text x="123" y="114" fill="#5b9bd5" font-size="12.5" font-weight="700" letter-spacing="0.2">Core Thesis</text>
  <circle cx="209.3" cy="110" r="2" fill="#5b9bd5" opacity="0.55"/>
  <path d="M 209.3,110 C 254.3,110 254.3,71.0 300.3,71.0" fill="none" stroke="#5b9bd5" stroke-width="0.9" opacity="0.35"/>
  <line x1="300.3" y1="71.0" x2="305.3" y2="71.0" stroke="#5b9bd5" stroke-width="1" opacity="0.45"/>
  <text x="307.3" y="75.0" fill="#bbbbbb" font-size="9.5">Most founders build before they understand.</text>
  <path d="M 209.3,110 C 254.3,110 254.3,97.0 300.3,97.0" fill="none" stroke="#5b9bd5" stroke-width="0.9" opacity="0.35"/>
  <line x1="300.3" y1="97.0" x2="305.3" y2="97.0" stroke="#5b9bd5" stroke-width="1" opacity="0.45"/>
  <text x="307.3" y="97.0" fill="#bbbbbb" font-size="9.5">Agentic coding makes building feel free — that&#x27;s</text>
  <text x="307.3" y="109.0" fill="#bbbbbb" font-size="9.5">the trap.</text>
  <path d="M 209.3,110 C 254.3,110 254.3,123.0 300.3,123.0" fill="none" stroke="#5b9bd5" stroke-width="0.9" opacity="0.35"/>
  <line x1="300.3" y1="123.0" x2="305.3" y2="123.0" stroke="#5b9bd5" stroke-width="1" opacity="0.45"/>
  <text x="307.3" y="127.0" fill="#bbbbbb" font-size="9.5">Sense-making must precede building.</text>
  <path d="M 209.3,110 C 254.3,110 254.3,149.0 300.3,149.0" fill="none" stroke="#5b9bd5" stroke-width="0.9" opacity="0.35"/>
  <line x1="300.3" y1="149.0" x2="305.3" y2="149.0" stroke="#5b9bd5" stroke-width="1" opacity="0.45"/>
  <text x="307.3" y="153.0" fill="#bbbbbb" font-size="9.5">The CEO enforces the order, phase by phase.</text>
  <circle cx="105" cy="340" r="3.5" fill="#70c2b4" opacity="0.9"/>
  <line x1="109" y1="340" x2="121" y2="340" stroke="#70c2b4" stroke-width="1.5" opacity="0.7"/>
  <text x="123" y="344" fill="#70c2b4" font-size="12.5" font-weight="700" letter-spacing="0.2">Phase 1 · Interview</text>
  <circle cx="267.7" cy="340" r="2" fill="#70c2b4" opacity="0.55"/>
  <path d="M 267.7,340 C 312.7,340 312.7,301.0 358.7,301.0" fill="none" stroke="#70c2b4" stroke-width="0.9" opacity="0.35"/>
  <line x1="358.7" y1="301.0" x2="363.7" y2="301.0" stroke="#70c2b4" stroke-width="1" opacity="0.45"/>
  <text x="365.7" y="305.0" fill="#bbbbbb" font-size="9.5">One question at a time until thesis is locked.</text>
  <path d="M 267.7,340 C 312.7,340 312.7,327.0 358.7,327.0" fill="none" stroke="#70c2b4" stroke-width="0.9" opacity="0.35"/>
  <line x1="358.7" y1="327.0" x2="363.7" y2="327.0" stroke="#70c2b4" stroke-width="1" opacity="0.45"/>
  <text x="365.7" y="331.0" fill="#bbbbbb" font-size="9.5">Pushback on vague answers — won&#x27;t proceed.</text>
  <path d="M 267.7,340 C 312.7,340 312.7,353.0 358.7,353.0" fill="none" stroke="#70c2b4" stroke-width="0.9" opacity="0.35"/>
  <line x1="358.7" y1="353.0" x2="363.7" y2="353.0" stroke="#70c2b4" stroke-width="1" opacity="0.45"/>
  <text x="365.7" y="353.0" fill="#bbbbbb" font-size="9.5">HOLD: critical gap on record before research</text>
  <text x="365.7" y="365.0" fill="#bbbbbb" font-size="9.5">starts.</text>
  <path d="M 267.7,340 C 312.7,340 312.7,379.0 358.7,379.0" fill="none" stroke="#70c2b4" stroke-width="0.9" opacity="0.35"/>
  <line x1="358.7" y1="379.0" x2="363.7" y2="379.0" stroke="#70c2b4" stroke-width="1" opacity="0.45"/>
  <text x="365.7" y="383.0" fill="#bbbbbb" font-size="9.5">Captures time budget and VC intent.</text>
  <circle cx="105" cy="580" r="3.5" fill="#a47de8" opacity="0.9"/>
  <line x1="109" y1="580" x2="121" y2="580" stroke="#a47de8" stroke-width="1.5" opacity="0.7"/>
  <text x="123" y="584" fill="#a47de8" font-size="12.5" font-weight="700" letter-spacing="0.2">Phase 2 · Research</text>
  <circle cx="260.4" cy="580" r="2" fill="#a47de8" opacity="0.55"/>
  <path d="M 260.4,580 C 305.4,580 305.4,541.0 351.4,541.0" fill="none" stroke="#a47de8" stroke-width="0.9" opacity="0.35"/>
  <line x1="351.4" y1="541.0" x2="356.4" y2="541.0" stroke="#a47de8" stroke-width="1" opacity="0.45"/>
  <text x="358.4" y="545.0" fill="#bbbbbb" font-size="9.5">20–30 autonomous web searches, counted aloud.</text>
  <path d="M 260.4,580 C 305.4,580 305.4,567.0 351.4,567.0" fill="none" stroke="#a47de8" stroke-width="0.9" opacity="0.35"/>
  <line x1="351.4" y1="567.0" x2="356.4" y2="567.0" stroke="#a47de8" stroke-width="1" opacity="0.45"/>
  <text x="358.4" y="567.0" fill="#bbbbbb" font-size="9.5">Maps competitors, build sequences, graveyard</text>
  <text x="358.4" y="579.0" fill="#bbbbbb" font-size="9.5">causes.</text>
  <path d="M 260.4,580 C 305.4,580 305.4,593.0 351.4,593.0" fill="none" stroke="#a47de8" stroke-width="0.9" opacity="0.35"/>
  <line x1="351.4" y1="593.0" x2="356.4" y2="593.0" stroke="#a47de8" stroke-width="1" opacity="0.45"/>
  <text x="358.4" y="597.0" fill="#bbbbbb" font-size="9.5">DRIFT CHECK: scope / audience / model / stage.</text>
  <path d="M 260.4,580 C 305.4,580 305.4,619.0 351.4,619.0" fill="none" stroke="#a47de8" stroke-width="0.9" opacity="0.35"/>
  <line x1="351.4" y1="619.0" x2="356.4" y2="619.0" stroke="#a47de8" stroke-width="1" opacity="0.45"/>
  <text x="358.4" y="619.0" fill="#bbbbbb" font-size="9.5">Confidence labels High / Med / Low on every</text>
  <text x="358.4" y="631.0" fill="#bbbbbb" font-size="9.5">finding.</text>
  <circle cx="105" cy="820" r="3.5" fill="#e8904c" opacity="0.9"/>
  <line x1="109" y1="820" x2="121" y2="820" stroke="#e8904c" stroke-width="1.5" opacity="0.7"/>
  <text x="123" y="824" fill="#e8904c" font-size="12.5" font-weight="700" letter-spacing="0.2">Phase 3 · Report</text>
  <circle cx="245.8" cy="820" r="2" fill="#e8904c" opacity="0.55"/>
  <path d="M 245.8,820 C 290.8,820 290.8,781.0 336.8,781.0" fill="none" stroke="#e8904c" stroke-width="0.9" opacity="0.35"/>
  <line x1="336.8" y1="781.0" x2="341.8" y2="781.0" stroke="#e8904c" stroke-width="1" opacity="0.45"/>
  <text x="343.8" y="781.0" fill="#bbbbbb" font-size="9.5">9 panels (startup) · 5 panels (MVP / side</text>
  <text x="343.8" y="793.0" fill="#bbbbbb" font-size="9.5">project).</text>
  <path d="M 245.8,820 C 290.8,820 290.8,807.0 336.8,807.0" fill="none" stroke="#e8904c" stroke-width="0.9" opacity="0.35"/>
  <line x1="336.8" y1="807.0" x2="341.8" y2="807.0" stroke="#e8904c" stroke-width="1" opacity="0.45"/>
  <text x="343.8" y="811.0" fill="#bbbbbb" font-size="9.5">Graveyard: root causes, not summaries.</text>
  <path d="M 245.8,820 C 290.8,820 290.8,833.0 336.8,833.0" fill="none" stroke="#e8904c" stroke-width="0.9" opacity="0.35"/>
  <line x1="336.8" y1="833.0" x2="341.8" y2="833.0" stroke="#e8904c" stroke-width="1" opacity="0.45"/>
  <text x="343.8" y="837.0" fill="#bbbbbb" font-size="9.5">Heresy panel: strongest case against building.</text>
  <path d="M 245.8,820 C 290.8,820 290.8,859.0 336.8,859.0" fill="none" stroke="#e8904c" stroke-width="0.9" opacity="0.35"/>
  <line x1="336.8" y1="859.0" x2="341.8" y2="859.0" stroke="#e8904c" stroke-width="1" opacity="0.45"/>
  <text x="343.8" y="863.0" fill="#bbbbbb" font-size="9.5">&#x27;Proceed with caution&#x27; is disqualified as Heresy.</text>
  <circle cx="555.0" cy="210.0" r="3.5" fill="#e06060" opacity="-859.1"/>
  <line x1="559.0" y1="210.0" x2="571.0" y2="210.0" stroke="#e06060" stroke-width="1.5" opacity="-859.3"/>
  <text x="573.0" y="214.0" fill="#e06060" font-size="12.5" font-weight="700" letter-spacing="0.2">Phase 4 · Hire the Team</text>
  <circle cx="746.9" cy="210.0" r="2" fill="#e06060" opacity="-859.45"/>
  <path d="M 746.9,210.0 C 791.9,210.0 791.9,171.0 837.9,171.0" fill="none" stroke="#e06060" stroke-width="0.9" opacity="-859.65"/>
  <line x1="837.9" y1="171.0" x2="842.9" y2="171.0" stroke="#e06060" stroke-width="1" opacity="-859.55"/>
  <text x="844.9" y="175.0" fill="#bbbbbb" font-size="9.5">Roster derived from research — every hire cited.</text>
  <path d="M 746.9,210.0 C 791.9,210.0 791.9,197.0 837.9,197.0" fill="none" stroke="#e06060" stroke-width="0.9" opacity="-859.65"/>
  <line x1="837.9" y1="197.0" x2="842.9" y2="197.0" stroke="#e06060" stroke-width="1" opacity="-859.55"/>
  <text x="844.9" y="201.0" fill="#bbbbbb" font-size="9.5">Persona brief + installable skill file per role.</text>
  <path d="M 746.9,210.0 C 791.9,210.0 791.9,223.0 837.9,223.0" fill="none" stroke="#e06060" stroke-width="0.9" opacity="-859.65"/>
  <line x1="837.9" y1="223.0" x2="842.9" y2="223.0" stroke="#e06060" stroke-width="1" opacity="-859.55"/>
  <text x="844.9" y="223.0" fill="#bbbbbb" font-size="9.5">Uncited role pushback: name the gap it fills</text>
  <text x="844.9" y="235.0" fill="#bbbbbb" font-size="9.5">first.</text>
  <path d="M 746.9,210.0 C 791.9,210.0 791.9,249.0 837.9,249.0" fill="none" stroke="#e06060" stroke-width="0.9" opacity="-859.65"/>
  <line x1="837.9" y1="249.0" x2="842.9" y2="249.0" stroke="#e06060" stroke-width="1" opacity="-859.55"/>
  <text x="844.9" y="249.0" fill="#bbbbbb" font-size="9.5">Cold-start quality gate before each skill is</text>
  <text x="844.9" y="261.0" fill="#bbbbbb" font-size="9.5">accepted.</text>
  <circle cx="555.0" cy="450.0" r="3.5" fill="#7dd47d" opacity="-859.1"/>
  <line x1="559.0" y1="450.0" x2="571.0" y2="450.0" stroke="#7dd47d" stroke-width="1.5" opacity="-859.3"/>
  <text x="573.0" y="454.0" fill="#7dd47d" font-size="12.5" font-weight="700" letter-spacing="0.2">Phase 5 · Board Meeting</text>
  <circle cx="746.9" cy="450.0" r="2" fill="#7dd47d" opacity="-859.45"/>
  <path d="M 746.9,450.0 C 791.9,450.0 791.9,411.0 837.9,411.0" fill="none" stroke="#7dd47d" stroke-width="0.9" opacity="-859.65"/>
  <line x1="837.9" y1="411.0" x2="842.9" y2="411.0" stroke="#7dd47d" stroke-width="1" opacity="-859.55"/>
  <text x="844.9" y="415.0" fill="#bbbbbb" font-size="9.5">Per-agent Green / Yellow / Red health scores.</text>
  <path d="M 746.9,450.0 C 791.9,450.0 791.9,437.0 837.9,437.0" fill="none" stroke="#7dd47d" stroke-width="0.9" opacity="-859.65"/>
  <line x1="837.9" y1="437.0" x2="842.9" y2="437.0" stroke="#7dd47d" stroke-width="1" opacity="-859.55"/>
  <text x="844.9" y="437.0" fill="#bbbbbb" font-size="9.5">ASSUMPTION AUDIT: Phase 1 thesis vs. current</text>
  <text x="844.9" y="449.0" fill="#bbbbbb" font-size="9.5">outputs.</text>
  <path d="M 746.9,450.0 C 791.9,450.0 791.9,463.0 837.9,463.0" fill="none" stroke="#7dd47d" stroke-width="0.9" opacity="-859.65"/>
  <line x1="837.9" y1="463.0" x2="842.9" y2="463.0" stroke="#7dd47d" stroke-width="1" opacity="-859.55"/>
  <text x="844.9" y="463.0" fill="#bbbbbb" font-size="9.5">Two consecutive Red scores = fire decision, not a</text>
  <text x="844.9" y="475.0" fill="#bbbbbb" font-size="9.5">flag.</text>
  <path d="M 746.9,450.0 C 791.9,450.0 791.9,489.0 837.9,489.0" fill="none" stroke="#7dd47d" stroke-width="0.9" opacity="-859.65"/>
  <line x1="837.9" y1="489.0" x2="842.9" y2="489.0" stroke="#7dd47d" stroke-width="1" opacity="-859.55"/>
  <text x="844.9" y="489.0" fill="#bbbbbb" font-size="9.5">Runs on return, milestone hit, or unexpected</text>
  <text x="844.9" y="501.0" fill="#bbbbbb" font-size="9.5">shift.</text>
  <circle cx="555.0" cy="630.0" r="3.5" fill="#c084d4" opacity="-859.1"/>
  <line x1="559.0" y1="630.0" x2="571.0" y2="630.0" stroke="#c084d4" stroke-width="1.5" opacity="-859.3"/>
  <text x="573.0" y="634.0" fill="#c084d4" font-size="12.5" font-weight="700" letter-spacing="0.2">Reliability Layer</text>
  <circle cx="703.1" cy="630.0" r="2" fill="#c084d4" opacity="-859.45"/>
  <path d="M 703.1,630.0 C 748.1,630.0 748.1,604.0 794.1,604.0" fill="none" stroke="#c084d4" stroke-width="0.9" opacity="-859.65"/>
  <line x1="794.1" y1="604.0" x2="799.1" y2="604.0" stroke="#c084d4" stroke-width="1" opacity="-859.55"/>
  <text x="801.1" y="608.0" fill="#bbbbbb" font-size="9.5">session-state.json — authoritative resume anchor.</text>
  <path d="M 703.1,630.0 C 748.1,630.0 748.1,630.0 794.1,630.0" fill="none" stroke="#c084d4" stroke-width="0.9" opacity="-859.65"/>
  <line x1="794.1" y1="630.0" x2="799.1" y2="630.0" stroke="#c084d4" stroke-width="1" opacity="-859.55"/>
  <text x="801.1" y="630.0" fill="#bbbbbb" font-size="9.5">STATE_JSON in roster.md — markdown is</text>
  <text x="801.1" y="642.0" fill="#bbbbbb" font-size="9.5">presentation.</text>
  <path d="M 703.1,630.0 C 748.1,630.0 748.1,656.0 794.1,656.0" fill="none" stroke="#c084d4" stroke-width="0.9" opacity="-859.65"/>
  <line x1="794.1" y1="656.0" x2="799.1" y2="656.0" stroke="#c084d4" stroke-width="1" opacity="-859.55"/>
  <text x="801.1" y="656.0" fill="#bbbbbb" font-size="9.5">Degradation modes: LOW_SIGNAL, CONFLICT,</text>
  <text x="801.1" y="668.0" fill="#bbbbbb" font-size="9.5">PARTIAL_RESUME.</text>
  <circle cx="555.0" cy="780.0" r="3.5" fill="#60c860" opacity="-859.1"/>
  <line x1="559.0" y1="780.0" x2="571.0" y2="780.0" stroke="#60c860" stroke-width="1.5" opacity="-859.3"/>
  <text x="573.0" y="784.0" fill="#60c860" font-size="12.5" font-weight="700" letter-spacing="0.2">What You Get</text>
  <circle cx="666.6" cy="780.0" r="2" fill="#60c860" opacity="-859.45"/>
  <path d="M 666.6,780.0 C 711.6,780.0 711.6,754.0 757.6,754.0" fill="none" stroke="#60c860" stroke-width="0.9" opacity="-859.65"/>
  <line x1="757.6" y1="754.0" x2="762.6" y2="754.0" stroke="#60c860" stroke-width="1" opacity="-859.55"/>
  <text x="764.6" y="758.0" fill="#bbbbbb" font-size="9.5">charter · report · hiring plan · hq.html · roster</text>
  <path d="M 666.6,780.0 C 711.6,780.0 711.6,780.0 757.6,780.0" fill="none" stroke="#60c860" stroke-width="0.9" opacity="-859.65"/>
  <line x1="757.6" y1="780.0" x2="762.6" y2="780.0" stroke="#60c860" stroke-width="1" opacity="-859.55"/>
  <text x="764.6" y="784.0" fill="#bbbbbb" font-size="9.5">Installable .skill files — one per team role.</text>
  <path d="M 666.6,780.0 C 711.6,780.0 711.6,806.0 757.6,806.0" fill="none" stroke="#60c860" stroke-width="0.9" opacity="-859.65"/>
  <line x1="757.6" y1="806.0" x2="762.6" y2="806.0" stroke="#60c860" stroke-width="1" opacity="-859.55"/>
  <text x="764.6" y="806.0" fill="#bbbbbb" font-size="9.5">Persistent company folder — picks up every</text>
  <text x="764.6" y="818.0" fill="#bbbbbb" font-size="9.5">session.</text>
  <text x="543.0" y="862.0" text-anchor="end" fill="#2e2e2e" font-size="9">github.com/afsalali1238/Incubator</text>
</svg>